<svg version="1.2" xmlns="http://www.w3.org/2000/svg" viewBox="0 0 766 1046" width="766" height="1046">
	<title>28849679_business_m_06-ai</title>
	<style>
		.s0 { fill: #e28c52 } 
		.s1 { fill: #fca76d } 
		.s2 { fill: #3f231b } 
		.s3 { fill: #eff3f9 } 
		.s4 { fill: #ffffff } 
		.s5 { fill: #382111 } 
		.s6 { fill: #bdc2c6 } 
		.s7 { fill: #a35b2b } 
		.s8 { fill: #20344c } 
		.s9 { fill: #06090c } 
		.s10 { fill: #281612 } 
		.s11 { fill: #d7dadd } 
		.s12 { fill: #312732 } 
		.s13 { fill: #1d171e } 
		.s14 { fill: #3d1c0b } 
		.s15 { fill: #b57e35 } 
		.s16 { fill: #5b260f } 
		.s17 { fill: #96472c } 
		.s18 { fill: #ea7c59 } 
		.s19 { fill: #592f34 } 
		.s20 { fill: #422127 } 
		.s21 { fill: #4b3d51 } 
		.s22 { fill: #352b3a } 
		.s23 { fill: #231d26 } 
	</style>
	<g id="_Artboards_">
	</g>
	<g id="Layer 1">
		<g id="&lt;Group&gt;">
			<g id="&lt;Group&gt;">
				<g id="&lt;Group&gt;">
					<path id="&lt;Path&gt;" class="s0" d="m303.3 512c1.2 0.8 34 12.3 35.3 13.2 8-3.9 20.4-19.1 22.5-25.3l-7.7-14.9c-18.8 7.4-39 8.4-50.1 27z"/>
				</g>
				<g id="&lt;Group&gt;">
					<g id="&lt;Group&gt;">
						<path id="&lt;Path&gt;" class="s1" d="m478.4 684.2l20 312.2 13.6-0.4 22.9-286.8z"/>
					</g>
					<g id="&lt;Group&gt;">
						<g id="&lt;Group&gt;">
							<path id="&lt;Path&gt;" class="s0" d="m460.8 1010.6l2.4 5.2 51.8-1.4-0.9-5.2-2.1-13.2-13.6 0.4-5.6 2.1-3.2 1.2-13.4 5.1-3.2 1.2z"/>
						</g>
						<path id="&lt;Path&gt;" class="s2" d="m463.2 1015.8l51.8-1.4-0.9-5.2-53.3 1.4z"/>
						<path id="&lt;Path&gt;" class="s2" d="m489.6 999.7c1.6 2.3 2.3 5.7 3 8.7 0.4 1.8 0.8 3.4 1.3 4.8l3.2-1.1c-0.5-1.3-0.8-2.8-1.2-4.4-0.7-3-1.5-6.4-3.1-9.2z"/>
						<path id="&lt;Path&gt;" class="s2" d="m473 1006q0.4 1.5 0.7 2.9c0.4 1.8 0.8 3.4 1.3 4.8l3.2-1.1c-0.5-1.3-0.8-2.8-1.2-4.4q-0.4-1.7-0.8-3.4z"/>
					</g>
				</g>
				<g id="&lt;Group&gt;">
					<g id="&lt;Group&gt;">
						<g id="&lt;Group&gt;">
							<path id="&lt;Path&gt;" class="s3" d="m497.8 430.7q-1 2.2-2 4.3c-1.3 2.7-6.4 2.1-12.2-0.4-10.2-4.2-22.9-14.1-22.5-21.7q0.1-2.9 0.5-6.2 0 0 0 0c1.9-16.7 8.2-41.6 10.5-64 6.9-67.6 15.9-141.5 50.1-119.4q2.2 1.4 3.8 3.9c17.9 26.4-0.5 142-28.2 203.5z"/>
						</g>
						<g id="&lt;Group&gt;">
							<path id="&lt;Path&gt;" class="s3" d="m495.8 429.4c-0.8 2.3-2.2 4.7-4.1 7.2-3.9 4.8-9.8 9.7-16.9 14.6-22.1 15-56.7 29.4-82.9 39.1-7.1 2.6-13.6 4.9-19.1 6.8q-0.6 0.2-1.3 0.5c-7.6 2.5-12.9 4.2-14.9 4.8q-1-1.3-1.7-2.6c-2.4-4.4-2.9-8.8-5.7-13.3q-0.4-0.6-0.8-1.2 7.3-3 14.2-6.4 0.3-0.1 0.5-0.2 3.3-1.6 6.4-3.3 0 0 0.1 0 5.7-3.1 11.1-6.3 0 0 0.1 0c26.4-15.8 63.7-50.7 81.5-67.2q0.1 0 0.1 0c5.7-5.3 9.4-8.7 10.1-9l6.6 19.9 10.7 10.5z"/>
						</g>
						<path id="&lt;Path&gt;" class="s4" d="m372.6 497.5c-7.6 2.6-12.9 4.3-14.9 4.8-3.5-2.5-7.9-16.7-8.2-17.1q7.3-3 14.2-6.3 0.2-0.2 0.5-0.3c2.5 6.3 5.4 12.6 8.4 18.9z"/>
					</g>
				</g>
				<g id="&lt;Group&gt;">
					<g id="&lt;Group&gt;">
						<path id="&lt;Path&gt;" class="s1" d="m575.1 684.2l23.4 312 13.5-0.6 19.8-287z"/>
					</g>
					<g id="&lt;Group&gt;">
						<g id="&lt;Group&gt;">
							<path id="&lt;Path&gt;" class="s0" d="m623.7 1014h-36.7l2.5-4.7 1.2-2.2 1.6-2.9 2.6-5 1.5-2.6 1.9-3.6 13.7 2.6 0.2 0.3 1.6 2.6 3.2 5 1.9 3 1.8 2.8z"/>
						</g>
					</g>
					<path id="&lt;Path&gt;" class="s2" d="m623.7 1014h-36.7v-4.7h36.7z"/>
					<path id="&lt;Path&gt;" class="s5" d="m618.9 1006.5c-6.8-2.8-21.4-1.7-28.2 0.6l1.6-2.9c6.8-1.7 17.5-2.5 24.7-0.7z"/>
					<path id="&lt;Path&gt;" class="s5" d="m613.8 998.5c-5.8-0.9-13.3-0.4-18.9 0.7l1.5-2.6c4.9-0.8 10.7-1.2 15.8-0.7z"/>
				</g>
				<g id="&lt;Group&gt;">
					<path id="&lt;Path&gt;" class="s6" d="m506.4 247.1c22.9 13 57.9 11.2 84.1 14.4 26.5 3.2 51.6-4.6 77.5-6.5-16.5-22.9-40.2-82.7-54.3-146.3-1.8-8.1-3.5-16.3-4.9-24.5q-0.4-2.1-0.8-4.2-0.4-2.6-0.8-5.3l-8.1-0.9-67.5-7.5c-0.7 2-8 5-9.3 5.9-5.7 4-25.6 85-15.9 174.9z"/>
				</g>
				<g id="&lt;Group&gt;">
					<path id="&lt;Path&gt;" class="s3" d="m672.3 859.8q0 9.8 0 19.2 0 1.9-0.1 3.8c-0.1 43.6-0.3 82.6-0.6 114h-228.1c10.3-181.9 56-636.1 51.5-753.4-0.8-20.4 22.7-20.4 41.8-23.7l49.8-4.7c8.7 8.7 22.8 10.8 36.7 13.3 18.5 3.3 36.7 7.1 42 27.5 4.3 16.8 6.8 294.1 7 522 0 28.3 0 55.8 0 82z"/>
				</g>
				<g id="&lt;Group&gt;">
					<path id="&lt;Path&gt;" class="s3" d="m515.6 78.2l22.3 33.6c-8.5 19.3-14.7 41.8-18.9 63-4.6 23.5 1.2 54.2 0.7 78-9.1 0.5-39.8-4.4-46.2 3.3-1.7-5.5 29.5-171.9 42.1-177.9z"/>
				</g>
				<g id="&lt;Group&gt;">
					<path id="&lt;Path&gt;" class="s0" d="m534.2 215.6c-2.1-6.4-5-35-8-42l50.1-30.7c-4.6 2.9 2.4 59.2 7.8 68.2 6.1 10.4 4.7 3.1 14.3 8.8-32.3 36.2-58.6 51.8-66.7 33.5 2.7-18.2 8.1-20.1 2.5-37.8z"/>
				</g>
				<g id="&lt;Group&gt;">
					<g id="&lt;Group&gt;">
						<path id="&lt;Path&gt;" class="s0" d="m527.9 192.6q2 0.5 4 0.9c17.4 3.5 33.5 0.5 49.1-6.6 22-10.2 20.7-86.1 3.9-117.1-3-5.4-6.4-9.5-10.2-11.6 0 0-14.5-1-21.4-0.4-10.5 0.8-16.9 2.1-23.1 10.3-5.9 7.7-16.8 65.3-19.3 84.9-2.6 19.9-8.1 33.1 17 39.6z"/>
					</g>
					<g id="&lt;Group&gt;">
						<path id="&lt;Path&gt;" class="s7" d="m532 151.3c2.9-17 6.8-25.8 6.5-34.7 0 0-9.3 31.4-10.2 36.7 5.8 3.1 11.2 5.9 16.8 1.8-5.3 0.2-9.8 0.3-13.1-3.8z"/>
					</g>
					<g id="&lt;Group&gt;">
						<g id="&lt;Group&gt;">
							<g id="&lt;Group&gt;">
								<path id="&lt;Path&gt;" class="s8" d="m574.4 123.3c-0.4 5.3-3.3 9.5-6.6 9.2-1.4-0.1-2.6-0.9-3.5-2.3-1.3-1.8-2-4.7-1.7-7.7 0.4-5.4 3.3-9.5 6.6-9.3q0.4 0.1 0.7 0.2c2.9 0.8 4.9 5 4.5 9.9z"/>
							</g>
							<g id="&lt;Group&gt;">
								<path id="&lt;Path&gt;" class="s9" d="m571.6 121.1c-0.3 5.4-3.3 9.5-6.6 9.2q-0.4 0-0.7-0.1c-1.3-1.8-2-4.7-1.7-7.7 0.4-5.4 3.3-9.5 6.6-9.3q0.4 0.1 0.7 0.2c1.3 1.8 2 4.6 1.7 7.7z"/>
							</g>
							<path id="&lt;Path&gt;" class="s4" d="m572.6 123.2c-0.1 0.9-0.8 1.7-1.6 1.6-0.8-0.1-1.4-0.9-1.3-1.8 0.1-1 0.8-1.7 1.6-1.6 0.8 0 1.4 0.8 1.3 1.8z"/>
						</g>
						<g id="&lt;Group&gt;">
							<path id="&lt;Path&gt;" class="s7" d="m579.1 123.3c-2.2-3.2-5.9-5.8-10.3-7-4.5-1.1-8.9-0.6-12.5 1.2 2.7-5.6 8.5-8.8 14.1-7.4 5.6 1.5 9.1 7.1 8.7 13.2z"/>
						</g>
					</g>
					<g id="&lt;Group&gt;">
						<g id="&lt;Group&gt;">
							<g id="&lt;Group&gt;">
								<path id="&lt;Path&gt;" class="s8" d="m531.6 119.6c-0.3 5.3-3.3 9.4-6.6 9.2-1.4-0.1-2.6-1-3.5-2.3-1.2-1.9-1.9-4.7-1.7-7.8 0.4-5.3 3.4-9.4 6.6-9.2q0.4 0 0.7 0.1c2.9 0.8 4.9 5.1 4.5 10z"/>
							</g>
							<g id="&lt;Group&gt;">
								<path id="&lt;Path&gt;" class="s9" d="m528.9 117.4c-0.4 5.3-3.4 9.4-6.7 9.2q-0.3 0-0.7-0.1c-1.2-1.9-1.9-4.7-1.7-7.8 0.4-5.3 3.4-9.4 6.6-9.2q0.4 0 0.7 0.1c1.3 1.9 2 4.7 1.8 7.8z"/>
							</g>
							<path id="&lt;Path&gt;" class="s4" d="m529.8 119.4c0 1-0.7 1.7-1.6 1.7-0.8-0.1-1.4-0.9-1.3-1.9 0.1-0.9 0.8-1.6 1.6-1.6 0.8 0.1 1.4 0.9 1.3 1.8z"/>
						</g>
						<g id="&lt;Group&gt;">
							<path id="&lt;Path&gt;" class="s7" d="m536.3 119.6c-2.2-3.2-5.8-5.8-10.3-7-4.5-1.2-8.9-0.6-12.4 1.1 2.6-5.6 8.4-8.7 14-7.3 5.6 1.4 9.1 7 8.7 13.2z"/>
						</g>
					</g>
					<path id="&lt;Path&gt;" class="s2" d="m564.7 93.7c6.9 0 14.7 2.8 19.9 4.6l-1.4 8c-5.5-2.3-16.1-1.5-23.6-2.1-2.2-4.9-4-10.5 5.1-10.5z"/>
					<path id="&lt;Path&gt;" class="s2" d="m507 181c2.6 20.5 28 27.2 39.3 28 1.6 0.1 2.8 0.1 3.8 0 7-0.6 22.5-0.4 35.1-12.7 11.3-11.1 16.6-56.1 16.6-62.7l-7.7-31.5c0 0-10.5 105.6-50.9 79.4-2-0.5-3.7-1.3-5.8-1.3 0.2 7.3-8.8 5.8-13.1 1.9-12.1-10.9-13-24.2-10.9-45.8-2.4 5.9-5.7 18.4-6.4 24.7-0.8 6.7-0.9 13.5 0 20z"/>
					<g id="&lt;Group&gt;">
						<g id="&lt;Group&gt;">
							<path id="&lt;Path&gt;" class="s7" d="m522.3 161.7c1.3 1.5 2.4 4.9 4.4 8.6q0.3 0.5 0.5 1 0.9 1.5 1.9 3c1.8 2.4 4 4.6 7.1 6.3 3.6 1.9 9.1 2.4 13.4 1.3q0.7-0.2 1.4-0.5c5.9-2.2 11.4-15 11.4-15q-2.3 0.3-5 0.5c-12.1 0.7-28.1-1.1-35.1-5.2z"/>
						</g>
						<path id="&lt;Path&gt;" class="s4" d="m522.3 161.7c1.4 1.6 1 2.4 3.3 6.5 7.1 5.6 22.3 5.9 26.9 3.9 2.9-1.3 3.3-2.2 4.9-5.2-12.1 0.7-28.1-1.1-35.1-5.2z"/>
					</g>
					<path id="&lt;Path&gt;" class="s2" d="m514.5 157.8c2.4-1.5 5.5-3.5 8.2-4.2 3.6-1 5.8 0.2 9.5 1 6.2 1.2 12.8 1.9 19.2 2.5 5.8 0.6 13.8 0.4 18 4.3 2.4 2.1 10.1 14.9 10.6 14.5l-6.8 7.3c-8.9-11.6-18.3-13.1-32.1-13.7-11.3-0.5-22.6-0.7-31.6-7.7 1.4-1.4 3.3-2.8 5-4z"/>
					<path id="&lt;Path&gt;" class="s10" d="m546.3 209c1.6 0.1 2.8 0.1 3.8 0 7-0.6 22.5-0.4 35.1-12.7 11.3-11.1 16.6-56.1 16.6-62.7l-7.7-31.5c0.3 26.6 1.2 64.1-16.3 85.7-6.1 7.5-13.4 12.7-22.1 17.1-3 1.5-6.2 2.8-9.4 4.1z"/>
					<path id="&lt;Path&gt;" class="s2" d="m531.6 90.9c-6.2-1.3-12.6 0.1-16.8 0.9l3 8c4.5-1.2 14.1 1.5 20.6 2.3 1-4.4 1.3-9.5-6.8-11.2z"/>
				</g>
				<g id="&lt;Group&gt;" style="opacity: .6;mix-blend-mode: multiply">
					<path id="&lt;Path&gt;" class="s11" d="m672.3 859.8q0 9.7 0 19.2 0 1.9-0.1 3.8c-0.1 43.6-0.3 82.6-0.6 114h-127.7c25.1-94.2 60.9-314.9 79.3-703.6 2-41.6-1.7-48.2-2.1-59.3 19.2 3.3 38.3 7.2 43.9 27.5 4.5 16.7 7 289.6 7.3 516.4 0 28.3 0 55.8 0 82z"/>
				</g>
				<g id="&lt;Group&gt;">
					<path id="&lt;Path&gt;" class="s4" d="m584.6 202c-5.5 7.3-27.9 30.9-35.4 29.3 0.8 5.4-5.7 29.8-5.7 34.7 0 0 30.6-4.9 54.9-46.1-6.9-4.9-10.3-10.5-13.8-17.9z"/>
				</g>
				<g id="&lt;Group&gt;">
					<path id="&lt;Path&gt;" class="s4" d="m532.8 212.1c-10.5 9-10.5 27.7-3.9 39.6l7.5 11.2c3.4-8.2 2.8-23.5 6-32.7-8.3-1.9-7.8-12.2-9.6-18.1z"/>
				</g>
				<g id="&lt;Group&gt;">
					<path id="&lt;Path&gt;" class="s4" d="m545.9 378.3v-120.2h-10v120.2z"/>
					<g id="&lt;Group&gt;">
						<g id="&lt;Group&gt;">
							<path id="&lt;Path&gt;" class="s11" d="m544.1 268.4c0 1.8-1.4 3.2-3.2 3.2-1.7 0-3.1-1.4-3.1-3.2 0-1.7 1.4-3.1 3.1-3.1 1.8 0 3.2 1.4 3.2 3.1z"/>
						</g>
						<g id="&lt;Group&gt;">
							<path id="&lt;Path&gt;" class="s11" d="m544.1 300.7c0 1.8-1.4 3.2-3.2 3.2-1.7 0-3.1-1.4-3.1-3.2 0-1.7 1.4-3.1 3.1-3.1 1.8 0 3.2 1.4 3.2 3.1z"/>
						</g>
						<g id="&lt;Group&gt;">
							<path id="&lt;Path&gt;" class="s11" d="m544.1 333c0 1.7-1.4 3.2-3.2 3.2-1.7 0-3.1-1.5-3.1-3.2 0-1.7 1.4-3.1 3.1-3.1 1.8 0 3.2 1.4 3.2 3.1z"/>
						</g>
						<g id="&lt;Group&gt;">
							<path id="&lt;Path&gt;" class="s11" d="m544.1 365.3c0 1.7-1.4 3.1-3.2 3.1-1.7 0-3.1-1.4-3.1-3.1 0-1.7 1.4-3.1 3.1-3.1 1.8 0 3.2 1.4 3.2 3.1z"/>
						</g>
					</g>
				</g>
				<g id="&lt;Group&gt;">
					<path id="&lt;Compound Path&gt;" fill-rule="evenodd" class="s2" d="m524.9 141.9c-6.8 0-14.3-0.6-17.8-4.6-5.2-5.9-7.2-24-0.1-30.7 2.4-2.3 6-3.4 10.8-3.4 4.9 0 10.3 1.2 14.2 2q1.2 0.3 2.2 0.5c5 1 7.5 6.9 6.6 15.7-1 10-6 20.4-12.8 20.5h-0.6q-1.2 0-2.5 0zm-7.1-35.2c-3.8 0-6.6 0.8-8.3 2.4-5.5 5.2-3.9 21.2 0.2 25.9 3 3.4 11.7 3.4 17.7 3.3h0.5c4 0 8.5-8.3 9.4-17.3 0.5-5-0.2-11.1-3.8-11.8q-1-0.2-2.2-0.5c-3.8-0.8-9-2-13.5-2z"/>
					<path id="&lt;Compound Path&gt;" fill-rule="evenodd" class="s2" d="m573.4 146.4c-6.8 0-14.3-0.5-17.8-4.6-5.2-5.9-7.2-24-0.1-30.7 2.4-2.3 5.9-3.4 10.8-3.4 4.9 0 10.3 1.2 14.2 2.1q1.2 0.2 2.2 0.4c5 1.1 7.5 6.9 6.6 15.7-1 10-6.1 20.4-12.9 20.5h-0.5q-1.2 0-2.5 0zm-7.1-35.1c-3.9 0-6.7 0.8-8.3 2.4-5.6 5.2-3.9 21.1 0.2 25.8 3 3.4 11.7 3.4 17.7 3.3h0.5c4 0 8.5-8.2 9.4-17.3 0.5-5-0.2-11.1-3.8-11.8q-1.1-0.2-2.3-0.5c-3.7-0.8-8.9-1.9-13.4-1.9z"/>
					<path id="&lt;Path&gt;" class="s2" d="m551.2 122.6c-2.1-3.1-4-4.7-5.6-4.8-1.4-0.1-3 1-5.1 3.3l-2.6-2.3c1.9-2.2 4.6-4.7 7.9-4.5 2.9 0.1 5.5 2.1 8.3 6.3z"/>
				</g>
				<g id="&lt;Group&gt;">
					<g id="&lt;Group&gt;">
						<path id="&lt;Path&gt;" class="s0" d="m643.1 636.5l-9.6-3.8c-1.5 6.4-11 16.2-14.3 37-0.7 4.6-4.1 9.8-3.2 13.9 5.5-3.2 5.1-10.6 9.6-14.5 3.8 10.7-5.4 29.3-5.4 41.4 3-1.6 5.8-6.7 6.6-10.5-0.4 1.7-0.1 3.5-0.3 5.1 3.1-2.6 4.9-6.7 6-10.6 0.3 0.6 1.5 1.6 1.8 2.3 9.7-13.7 12.9-44.5 8.8-60.3z"/>
					</g>
					<g id="&lt;Group&gt;">
						<g id="&lt;Group&gt;">
							<path id="&lt;Path&gt;" class="s3" d="m673.4 488.9q-0.6 2.7-1.2 5.3c-0.8 3.4-6 4.1-12.4 2.8-11.1-2.2-20.9 22.9-29.2-100.9-5.3-78.1-11.1-163.9 27.6-147.7q2.5 1 4.7 3.4c23.1 25.3 26.7 160.6 10.5 237.1z"/>
						</g>
						<g id="&lt;Group&gt;">
							<g id="&lt;Group&gt;">
								<path id="&lt;Path&gt;" class="s3" d="m678.5 458.1c1.3 2.4 0.3 45-0.4 54.5-2.3 29.3-12.5 68.8-21.2 97.9-2.3 8-4.6 15.1-6.5 21.1q-0.2 0.7-0.5 1.5c-2.6 8.2-4.6 13.9-5.4 16q-1.6-0.1-3-0.3c-4.8-1-8.5-3.6-13.5-4.3q-0.7-0.1-1.4-0.2 2.2-8.3 3.9-16.5c0-0.2 5-173.1 5.2-174z"/>
							</g>
							<path id="&lt;Path&gt;" class="s4" d="m650.5 632.1c-2.6 8.2-4.6 14-5.4 16-4.1 1.3-17.4-4.7-17.9-4.8q2.2-8.3 3.9-16.5 0-0.3 0.1-0.6c6.2 2.2 12.8 4.1 19.3 5.9z"/>
						</g>
					</g>
				</g>
				<g id="&lt;Group&gt;">
					<path id="&lt;Path&gt;" class="s3" d="m517 65.6l58.4 3.7 31.8 1.9c16.8-1.1 2.9-18-3.4-23.2-5.6-4.7-11.8-8.5-18.5-11.3q-4.6-2-9.6-3.3c-18.9-4.8-45.7-3.1-55.1 16.3-2.3 4.8-3.8 10.7-3.6 15.9z"/>
				</g>
				<g id="&lt;Group&gt;">
					<path id="&lt;Path&gt;" class="s3" d="m513.6 88.1c5.6-1.2 10.7-11.5 10.7-11.5 5.1 3.6 11.4 7.2 17.9 8.8 7 1.8 12.5-1.5 19.1-2.8 3.5-0.7 7.2-2.4 10.7-1.8 19.6 3.2 20.7 20.8 24.7 23.4 4 2.5 9 1.3 13.1 2.7 1.3 0.4 2.6 1.1 3.9 1.8-1.8-8.1-3.5-16.3-4.9-24.5q-0.4-2.1-0.8-4.2c-10.9-38.8-87.7-21.8-96.3-5.5-0.6 1.2 5.3 0.7 1.9 3 0 0-1.4 2.8-1.4 2.8-0.2 0.7 1.6 7 1.4 7.8z"/>
				</g>
				<g id="&lt;Group&gt;">
					<path id="&lt;Path&gt;" class="s3" d="m585.1 87.3c16.7 18.5 16.7 168.8 7.9 184.2 3.9 0.5 35.7 0.3 58.7-5.5 9.3-2.3 17.1-5.5 21.1-9.9-6.3-6-59.2-149.8-62.8-163.9-2.8-10.6-13.3-17.1-24.4-19.8 0.1 1.6-0.3 3.4-0.9 4.7q-0.3 0.5-0.5 0.9z"/>
				</g>
				<g id="&lt;Group&gt;" style="mix-blend-mode: multiply">
					<g id="&lt;Group&gt;">
						<path id="&lt;Path&gt;" class="s3" d="m584.7 77.1c8 7.6 15 16.2 21.2 26.8 14.6 24.7 25.8 54.4 33.3 82 5 18.9 9.5 38.6 12 57.9 1 7.4 0.9 14.8 0.5 22.2 9.3-2.3 17.1-5.5 21.1-9.9-6.3-6-59.2-149.8-62.8-163.9-2.8-10.6-13.3-17.1-24.4-19.8 0.1 1.6-0.3 3.4-0.9 4.7z"/>
						<path id="&lt;Path&gt;" class="s3" d="m561.3 59.3c5 3.3 9.7 6.5 14.1 10l31.8 1.9c16.8-1.1 2.9-18-3.4-23.2-5.6-4.7-11.8-8.5-18.5-11.3q0.2 1 0.2 1.7c0 15.7-12.6 17-24.2 20.9z"/>
					</g>
				</g>
				<g id="&lt;Group&gt;">
					<g id="&lt;Group&gt;">
						<path id="&lt;Path&gt;" class="s12" d="m511.7 77.2q0.2 1.4 0.5 3.1c18.2-20.1 89.2-11.7 98.4 13.4l-0.6-21.5c-10.3-10-28.5-15.6-46.3-17.5q0 0 0 0c-20.7-2.2-40.9 0.5-47.6 7-4 7.5-5.4 8.2-4.4 15.5z"/>
						<path id="&lt;Path&gt;" class="s12" d="m610 92.2v-0.7q0 0.3 0 0.7z"/>
					</g>
					<path id="&lt;Path&gt;" class="s13" d="m511.7 77.2q0.2 1.4 0.5 3.1c18.2-20.1 89.2-11.7 98.4 13.4l-0.6-21.5c-10.3-10-28.5-15.6-46.3-17.5q0 0 0 0-5.6-0.5-11.3-0.5c4.7 1.7 12.7 3.4 17.6 7-9.9-3.5-27 0.6-36.7 3.7-7 2.2-15.7 6.5-21.6 12.3z"/>
				</g>
			</g>
			<g id="&lt;Group&gt;">
				<g id="&lt;Group&gt;">
					<g id="&lt;Group&gt;">
						<g id="&lt;Group&gt;">
							<g id="&lt;Group&gt;">
								<path id="&lt;Path&gt;" class="s1" d="m282.2 625.6c-0.5-5.3-3.6-8.3-5.5-13.4-1.8-4.8-0.8-10.1-2.6-14.8l-14.7 9.4c-3.6 5.7-4.4 13.9-5.4 20.8-0.5 3.2-2.5 24.8 4.1 16.7 1.5 3.6 5.9 3.7 7.3-0.3 1.4 3.9 6.1 4.2 6.9-0.2 6.4 12.9 10.3-13.8 9.9-18.2z"/>
							</g>
							<g id="&lt;Group&gt;">
								<path id="&lt;Path&gt;" class="s1" d="m285 626.7c-0.8-3.4-4.6-5.4-6.7-8l-0.3 21.4c2.2-0.2 4.4-0.4 6.5 0.2 0.2-4.2 1.3-9.7 0.5-13.6z"/>
							</g>
							<g id="&lt;Group&gt;">
								<g id="&lt;Group&gt;">
									<path id="&lt;Compound Path&gt;" fill-rule="evenodd" class="s14" d="m291.9 648.9v2.3q0 1.1-0.1 2c-0.9 6.2-5.5 11.1-11.4 12.5q-1.6 0.3-3.3 0.3h-22.5c-7.5 0-13.7-5.5-14.7-12.8q-0.1-0.9-0.1-2v-2.3q0-1 0.1-2c0.7-5.2 4.1-9.5 8.8-11.6q1.7-0.7 3.6-1 1.1-0.2 2.3-0.2h22.5q1.6 0 3.1 0.3c6.1 1.3 10.7 6.3 11.6 12.5q0.1 1 0.1 2zm-5.9 0q0-1-0.2-2c-0.7-2.9-2.8-5.3-5.6-6.3q-1.5-0.6-3.1-0.6h-22.5q-0.5 0-1 0.1c-3.8 0.4-6.8 3.2-7.6 6.8q-0.3 1-0.3 2v2.3q0 1.1 0.3 2c0.9 4 4.4 6.9 8.6 6.9h22.5q1.8 0 3.3-0.6c2.7-1.1 4.7-3.4 5.4-6.3q0.2-0.9 0.2-2z"/>
									<g id="&lt;Group&gt;">
										<path id="&lt;Path&gt;" class="s15" d="m281.4 650.1c0 1.7 1.2 3.1 2.6 3.1h17.8c1.4 0 2.5-1.4 2.5-3.1 0-1.8-1.1-3.2-2.5-3.2h-17.8c-1.4 0-2.6 1.4-2.6 3.2z"/>
										<path id="&lt;Path&gt;" class="s15" d="m227.4 650.1c0 1.7 1.1 3.1 2.5 3.1h17.1c1.4 0 2.5-1.4 2.5-3.1 0-1.8-1.1-3.2-2.5-3.2h-17.1c-1.4 0-2.5 1.4-2.5 3.2z"/>
									</g>
								</g>
								<g id="&lt;Group&gt;">
									<g id="&lt;Group&gt;">
										<path id="&lt;Path&gt;" class="s14" d="m349.4 662.4v105.3c0 6.6-5.3 11.9-11.8 11.9h-143.8c-6.6 0-11.9-5.3-11.9-11.9v-105.3c0-6.6 5.3-11.9 11.9-11.9h143.8c6.5 0 11.8 5.3 11.8 11.9z"/>
										<path id="&lt;Path&gt;" class="s16" d="m349.4 662.4v61.4c0 6.5-5.3 11.8-11.8 11.8h-143.8c-6.6 0-11.9-5.3-11.9-11.8v-61.4c0-6.6 5.3-11.9 11.9-11.9h143.8c6.5 0 11.8 5.3 11.8 11.9z"/>
									</g>
									<g id="&lt;Group&gt;">
										<g id="&lt;Group&gt;">
											<path id="&lt;Path&gt;" class="s17" d="m294.3 650.4v93.6l1.2 11.9h8.2l1.2-11.9v-93.6z"/>
											<path id="&lt;Path&gt;" class="s14" d="m297.9 740.2c0 0.9 0.8 1.7 1.7 1.7 0.9 0 1.7-0.8 1.7-1.7 0-0.9-0.8-1.7-1.7-1.7-0.9 0-1.7 0.8-1.7 1.7z"/>
											<path id="&lt;Path&gt;" class="s14" d="m297.9 727.1c0 0.9 0.8 1.6 1.7 1.6 0.9 0 1.7-0.7 1.7-1.6 0-1-0.8-1.7-1.7-1.7-0.9 0-1.7 0.7-1.7 1.7z"/>
											<path id="&lt;Path&gt;" class="s14" d="m297.9 713.9c0 1 0.8 1.7 1.7 1.7 0.9 0 1.7-0.7 1.7-1.7 0-0.9-0.8-1.6-1.7-1.6-0.9 0-1.7 0.7-1.7 1.6z"/>
											<g id="&lt;Group&gt;">
												<path id="&lt;Path&gt;" class="s15" d="m298.1 744.6l1.3 9.3h0.4l1.3-9.3z"/>
												<path id="&lt;Compound Path&gt;" fill-rule="evenodd" class="s15" d="m307.4 747.1v7.4c0 2.1-1.6 3.8-3.7 3.8h-8.2c-2.1 0-3.7-1.7-3.7-3.8v-7.4c0-1.6 1-3 2.5-3.5q0.5-0.2 1.2-0.2h8.2q0.6 0 1.2 0.2c1.5 0.5 2.5 1.9 2.5 3.5zm-2.3 0q-0.1-0.5-0.4-0.9c-0.3-0.3-0.6-0.4-1-0.4h-8.2c-0.4 0-0.7 0.2-1 0.4-0.2 0.3-0.4 0.6-0.4 0.9v7.4c0 0.8 0.7 1.4 1.4 1.4h8.2c0.7 0 1.4-0.6 1.4-1.4z"/>
											</g>
										</g>
										<g id="&lt;Group&gt;">
											<path id="&lt;Path&gt;" class="s17" d="m214 650.5v93.7l1.3 11.9h8.2l1.2-11.9v-93.7z"/>
											<path id="&lt;Path&gt;" class="s14" d="m217.7 740.3c0 1 0.7 1.7 1.7 1.7 0.9 0 1.7-0.7 1.7-1.7 0-0.9-0.8-1.6-1.7-1.6-1 0-1.7 0.7-1.7 1.6z"/>
											<path id="&lt;Path&gt;" class="s14" d="m217.7 727.2c0 0.9 0.7 1.7 1.7 1.7 0.9 0 1.7-0.8 1.7-1.7 0-0.9-0.8-1.7-1.7-1.7-1 0-1.7 0.8-1.7 1.7z"/>
											<path id="&lt;Path&gt;" class="s14" d="m217.7 714.1c0 0.9 0.7 1.7 1.7 1.7 0.9 0 1.7-0.8 1.7-1.7 0-0.9-0.8-1.7-1.7-1.7-1 0-1.7 0.8-1.7 1.7z"/>
											<g id="&lt;Group&gt;">
												<path id="&lt;Path&gt;" class="s15" d="m217.9 744.7l1.3 9.3 0.4 0.1 1.2-9.4z"/>
												<path id="&lt;Compound Path&gt;" fill-rule="evenodd" class="s15" d="m227.2 747.3v7.4c0 2-1.7 3.7-3.7 3.7h-8.2c-2.1 0-3.8-1.7-3.8-3.7v-7.4c0-1.6 1.1-3 2.5-3.5q0.6-0.2 1.3-0.2h8.2q0.6 0 1.2 0.2c1.5 0.5 2.5 1.9 2.5 3.5zm-2.4 0c0-0.4-0.1-0.7-0.3-0.9-0.3-0.3-0.6-0.5-1-0.5h-8.2c-0.4 0-0.8 0.2-1 0.5-0.2 0.2-0.4 0.5-0.4 0.9v7.4c0 0.7 0.6 1.4 1.4 1.4h8.2c0.7 0 1.3-0.7 1.3-1.4z"/>
											</g>
										</g>
										<path id="&lt;Path&gt;" class="s14" d="m349.4 662.4v105.3c0 6.6-5.3 11.9-11.8 11.9h-19.8c0.2-12.1 0.6-27.8 1.4-44 1.5-34.9 4.3-71.9 8.6-78.3 2.4-3.7 5.4-5.9 8.5-6.8h1.3c6.5 0 11.8 5.3 11.8 11.9z"/>
									</g>
								</g>
							</g>
							<g id="&lt;Group&gt;">
								<path id="&lt;Path&gt;" class="s1" d="m277.7 635.4c-0.8 0.9-2 1.1-2.4 2.5-1.3-5.3-6.5-7.3-7.1-0.5-0.9-1.8-1.4-5.5-5.3-5-2.9 0.3-4.1 4-4.3 5.6-0.3-1.4-1.5-2.7-3.9-2.5-2 3-1.4 7.7-0.1 9.8l4.7 1.3c4.3 1.2 14.2 1.3 17.6-0.9 3.1-2 4.7-8.4 0.8-10.3z"/>
							</g>
						</g>
						<g id="&lt;Group&gt;">
							<path id="&lt;Path&gt;" class="s4" d="m224.7 351.1c2.6 17.1 5.7 35 8.8 52.1 3.2 17.4 5.8 43 7.9 60.9 0.4 2.9 0.7 5.5 1 7.9l16.2-4.9 20.9-6.2q-0.1-2.8-0.2-5.8c-0.3-16.6-1.1-38.2-2.1-53.4-4.1-64.6-3.4-126-21.8-137.1-5.9-3.6-24.5-8.4-25.9-9-16.5-7.1-13.1 40.6-4.8 95.5z"/>
							<path id="&lt;Path&gt;" class="s4" d="m255.3 580.3c1.1 9.9 1.9 19.9 2.2 30 7.1 0.2 11.4-1.5 18.5 0 0.3-1.8 6.6-97.7 7.5-114.2 1-21.1-3.6-39.1-4.2-41q0-0.1 0-0.1c-0.1-0.5-19.3 0.7-30.3 4.1-4.3 1.3-7.3 3-7.6 5q0 0.1 0 0.2c-1.2 34.5 9.1 73.9 13.9 116z"/>
						</g>
						<path id="&lt;Path&gt;" class="s11" d="m223.6 315.2c0 0 1.1 18.7-4.2 41 2.6 17.1 11 29.9 14.1 47 3.2 17.4 5.8 43 7.9 60.9q0 0.1 0 0.2c-1.2 34.5 9.1 73.9 13.9 116 0.2-32.9 0.1-93.2-4.6-107.8 4-1.3 9.3-1.3 12.7-3.6-1.6-0.5-3.2-1.1-4.8-1.8-3-1.2-6-2.5-9.1-3.4q-0.2-1.9-0.5-4.6c-3.3-28.5-18-127.1-25.4-143.9z"/>
					</g>
					<g id="&lt;Group&gt;">
						<path id="&lt;Path&gt;" class="s1" d="m358.9 504.6c-0.5 1.6-3.1 1.9-5.3 2.1 2.1 1.3 4 2.9 3.8 5.1-0.2 2.5-2.7 3.1-5.3 3 1 0.9 1.6 2 1.5 3.3-0.2 2.3-2.3 3-4.6 3 0.4 0.7 0.7 1.5 0.6 2.4-0.2 2.9-3.7 3.2-6.7 2.8-2.8 1.2-7.4-0.8-13.4-0.8-8.8 0-12.9-0.9-17.1-3.9-3.9-2.7-10.4-7.1-15.2-14.4l2.5-15.9c21.1 2.3 63.6 0 59.2 13.3z"/>
					</g>
					<g id="&lt;Group&gt;">
						<g id="&lt;Group&gt;">
							<g id="&lt;Group&gt;">
								<path id="&lt;Path&gt;" class="s4" d="m249.5 376.5q-1.7 5.3-4.1 11c-11.5 28.1-12.8 94-15.6 138.9-1.2 20.5-2.7 36.6-5.7 42.7q-0.9 2-1.7 2.7c-6.8 5.5-23.1 2.8-31.8 2.8-23.1 0-45.5 6-67.8-0.3-9.1-38.7-23.7-173.2-35.2-220.3-5-20.3-22.2-67.5-2.2-84.6 21.2-18 56.1-15.5 59.1-23.2l72.6 3.9c44.3 11.9 39.1 18 39 50.2-0.1 27.3 2.4 48.4-6.6 76.2z"/>
								<path id="&lt;Path&gt;" class="s11" d="m227.8 555.4c-0.6 1.3-4.9 15.9-5.4 16.4-6.8 5.5-23.1 2.8-31.8 2.8-23.1 0-45.5 6-67.8-0.3-9.1-38.7-23.7-173.2-35.2-220.3-5-20.3-22.2-67.5-2.2-84.6-2.1 8.5-6.4 18.9 0 25.2 14.4 14.1 25 43.2 28.8 76.6 4 35.7 52.9 32.7 48.9 33.9-28.4 8.4-44.5-4.5-43.5 4.1 6.3 52.4 8.7 103.9 18.2 114.3 33.1 36.2 51.1 30.6 90 31.9z"/>
							</g>
							<g id="&lt;Group&gt;">
								<path id="&lt;Path&gt;" class="s1" d="m195.1 241.9c2.5 5.5 10.9 8.5 6.6 28-0.9 5-3.3 8.3-5.6 15.6-0.1 0.2-2.5 4.9-2.6 5-1.3 0.2-0.7 2.2-2.2 2.6q-0.6-0.2-1.3-0.4c-6.2-1.9-9.8-5.9-15.1-4.2-0.5-0.2-5.4-1-5.9-1.3-16.3-8.2-35.5-17.2-45.5-37.3q-0.7-1.5-1.4-3.1c10.8-6.4 9.3 1.8 16.2-9.9 6.1-10.3 14.1-74 8.9-77.3l56.9 34.7c-3.4 7.9-12.1 40.7-9 47.6z"/>
							</g>
							<g id="&lt;Group&gt;">
								<g id="&lt;Group&gt;">
									<g id="&lt;Group&gt;">
										<path id="&lt;Path&gt;" class="s1" d="m211 127c0.4-8.4 5.1-12.3 9.7-9.6 5.7 3.3 6.1 14 5.7 20.7-0.4 6.4-2.7 15.2-6.1 20.3-9.2 14.1-9.3-31.4-9.3-31.4z"/>
									</g>
									<g id="&lt;Group&gt;">
										<path id="&lt;Path&gt;" class="s18" d="m212.9 133.1c0.1-13.3 3.5-17.4 9.3-9.8 4 5.2 1.7 13.4 0.9 19.1 0.4-4.8-3.5-17.5-6-9.8-2.2 6.6-1.4 17.7-2.6 17.9 0 0-1.6-11-1.6-17.4z"/>
									</g>
								</g>
								<g id="&lt;Group&gt;">
									<path id="&lt;Path&gt;" class="s1" d="m202.2 215.9q-2.3 0.5-4.5 1c-19.8 4-38.2 0.6-55.8-7.5-25.1-11.5-23.6-97.5-4.5-132.6 3.4-6.1 7.3-10.7 11.7-13 0 0 16.3-1.2 24.3-0.6 11.9 1 19.2 2.5 26.2 11.7 6.7 8.8 19.1 73.9 22 96.2 2.9 22.4 9.2 37.5-19.4 44.8z"/>
								</g>
								<g id="&lt;Group&gt;">
									<path id="&lt;Path&gt;" class="s18" d="m197.6 169.1c-3.4-19.2-7.8-29.2-7.5-39.3 0 0 10.6 35.6 11.6 41.6-6.6 3.5-12.7 6.7-19 2 6 0.2 11.1 0.3 14.9-4.3z"/>
								</g>
								<g id="&lt;Group&gt;">
									<path id="&lt;Path&gt;" class="s19" d="m198.1 100.7c6.9-1.4 14.2 0.1 19 1l-3.4 9.2c-5.1-1.4-16 1.6-23.5 2.5-1-4.9-1.4-10.8 7.9-12.7z"/>
								</g>
								<g id="&lt;Group&gt;">
									<g id="&lt;Group&gt;">
										<g id="&lt;Group&gt;">
											<path id="&lt;Path&gt;" class="s8" d="m149.3 137.5c0.5 6 3.8 10.6 7.6 10.4 1.5-0.1 2.9-1.1 3.9-2.6 1.5-2.1 2.3-5.3 2-8.8-0.4-6.1-3.8-10.7-7.5-10.5q-0.5 0.1-0.8 0.2c-3.3 0.9-5.6 5.7-5.2 11.3z"/>
										</g>
										<g id="&lt;Group&gt;">
											<path id="&lt;Path&gt;" class="s9" d="m152.5 135c0.4 6 3.8 10.7 7.5 10.4q0.4 0 0.8-0.1c1.5-2.1 2.3-5.3 2-8.8-0.4-6.1-3.8-10.7-7.5-10.5q-0.5 0.1-0.8 0.2c-1.5 2.1-2.3 5.3-2 8.8z"/>
										</g>
										<path id="&lt;Path&gt;" class="s4" d="m151.4 137.3c0.1 1.1 0.9 1.9 1.8 1.8 0.9 0 1.6-1 1.5-2-0.1-1.1-0.9-1.9-1.8-1.9-0.9 0.1-1.6 1-1.5 2.1z"/>
									</g>
									<g id="&lt;Group&gt;">
										<path id="&lt;Path&gt;" class="s18" d="m144 137.5c2.5-3.7 6.7-6.6 11.7-8 5.1-1.3 10.2-0.7 14.2 1.3-3-6.3-9.6-9.9-16-8.3-6.3 1.7-10.3 8-9.9 15z"/>
									</g>
								</g>
								<g id="&lt;Group&gt;">
									<g id="&lt;Group&gt;">
										<g id="&lt;Group&gt;">
											<path id="&lt;Path&gt;" class="s8" d="m198 133.2c0.4 6 3.8 10.7 7.5 10.4 1.6-0.1 2.9-1 4-2.6 1.4-2.1 2.2-5.3 1.9-8.8-0.4-6-3.8-10.7-7.5-10.4q-0.4 0-0.8 0.1c-3.3 0.9-5.6 5.7-5.1 11.3z"/>
										</g>
										<g id="&lt;Group&gt;">
											<path id="&lt;Path&gt;" class="s9" d="m201.1 130.8c0.5 6 3.8 10.6 7.6 10.4q0.4-0.1 0.8-0.2c1.4-2.1 2.2-5.3 1.9-8.8-0.4-6-3.8-10.7-7.5-10.4q-0.4 0-0.8 0.1c-1.5 2.2-2.2 5.3-2 8.9z"/>
										</g>
										<path id="&lt;Path&gt;" class="s4" d="m200 133.1c0.1 1 0.9 1.9 1.8 1.8 0.9-0.1 1.6-1 1.5-2.1 0-1.1-0.9-1.9-1.8-1.8-0.9 0.1-1.6 1-1.5 2.1z"/>
									</g>
									<g id="&lt;Group&gt;">
										<path id="&lt;Path&gt;" class="s18" d="m192.6 133.2c2.6-3.6 6.7-6.6 11.8-7.9 5.1-1.3 10.1-0.7 14.1 1.3-3-6.3-9.6-9.9-15.9-8.3-6.4 1.6-10.4 8-10 14.9z"/>
									</g>
								</g>
								<g id="&lt;Group&gt;">
									<g id="&lt;Group&gt;">
										<path id="&lt;Path&gt;" class="s19" d="m211 103.9c-18.3-6.2-61.8-18.7-72.6 2.9-8.6 17.2-10.3 30.1-9.6 48.5-3.6 1.6-7.9 2.5-10 0.1 0 0-0.2-1.9-0.6-5-2.2-17.4-9-73.4-6.4-77.6 6.2-9.8 23.3-17.5 42.2-22.8 29-8.4 66.4 1.6 70.3 5.3 6.2 5.7-7.4 43.9-13.3 48.6z"/>
									</g>
									<g id="&lt;Group&gt;">
										<path id="&lt;Path&gt;" class="s20" d="m162.9 80.5c-1.6 0.3-2.9 0.9-4.5 1.5-13 5.2-21.6 15-27.5 26.1-3.3 6.1-4.7 13.5-5.8 20.1-0.7 4.8-3.7 17.1-0.7 21.2l-6.2 1c-2.2-17.4-9-73.4-6.4-77.6 6.2-9.8 23.3-17.5 42.2-22.8-7.3 6.9-13.6 15.5-13.2 22.1 5.9-0.7 21.2 1.9 22.1 8.4z"/>
									</g>
								</g>
								<g id="&lt;Group&gt;">
									<path id="&lt;Path&gt;" class="s19" d="m160.4 103.9c-7.8 0-16.8 3.2-22.6 5.2l1.5 9c6.3-2.5 18.3-1.7 26.8-2.3 2.6-5.5 4.6-11.8-5.7-11.9z"/>
								</g>
								<g id="&lt;Group&gt;">
									<path id="&lt;Path&gt;" class="s19" d="m226 202.8c-3 23.2-31.9 30.7-44.7 31.7-1.8 0.1-3.2 0.1-4.3 0-8-0.8-25.6-0.5-39.9-14.4-12.8-12.6-18.9-63.6-18.9-71l9.2-28.7 1.5-4.7c0.5 0 0.7-0.7 0.9-0.1-4.2 14.9 9.1 117.4 55 87.8 2.3-0.7 4.2-1.6 6.7-1.5-0.3 8.2 9.9 6.5 14.8 2.1 13.8-12.4 14.8-27.4 12.4-51.8 2.7 6.6 6.5 20.7 7.3 27.9 0.9 7.6 0.9 15.3 0 22.7z"/>
								</g>
								<g id="&lt;Group&gt;">
									<g id="&lt;Group&gt;">
										<path id="&lt;Path&gt;" class="s18" d="m208.6 180.8c-1.5 1.8-2.8 5.7-5 9.9q-0.3 0.5-0.6 1.1-1 1.7-2.2 3.4c-2 2.7-4.5 5.2-8 7.1-4.1 2.2-10.4 2.7-15.2 1.4q-0.9-0.2-1.6-0.5c-6.7-2.5-13.1-17-13.1-17q2.7 0.4 5.8 0.6c13.8 0.8 31.9-1.3 39.9-6z"/>
									</g>
									<path id="&lt;Path&gt;" class="s4" d="m208.6 180.8c-1.6 1.9-1.1 2.8-3.8 7.4-8 6.4-25.3 6.7-30.6 4.4-3.3-1.4-3.7-2.5-5.5-5.8 13.8 0.8 31.9-1.3 39.9-6z"/>
								</g>
								<g id="&lt;Group&gt;">
									<path id="&lt;Path&gt;" class="s19" d="m221 180.8c-2.7-1.7-19.5-6.1-23.6-5.2-7.1 1.4-37.6 3.3-42.4 7.7-2.6 2.4-13.9 13.9-14.5 13.5l5.9 6.5c10.1-13.1 11.2-16.2 39.4-19.7 27.4-3.5 28.4 6.3 38.7 6.5-1.7-1.5-1.6-8-3.5-9.3z"/>
								</g>
								<g id="&lt;Group&gt;">
									<path id="&lt;Path&gt;" class="s20" d="m181.3 234.5c-1.8 0.1-3.2 0.1-4.3 0-8-0.8-25.6-0.5-39.9-14.4-12.8-12.6-18.9-63.6-18.9-71l8.8-35.7c-0.3 30.2-1.4 72.6 18.5 97 6.9 8.5 15.2 14.4 25.1 19.4 3.5 1.7 7 3.2 10.7 4.7z"/>
								</g>
								<g id="&lt;Group&gt;">
									<g id="&lt;Group&gt;">
										<path id="&lt;Path&gt;" class="s1" d="m122.6 143.9c-2.8-8.1-10.4-10.8-16-7.1-7.1 4.6-4.8 15.1-2.3 21.6 2.3 6.1 7.9 14.1 14 18.3 16.6 11.4 4.3-32.8 4.3-32.8z"/>
									</g>
									<g id="&lt;Group&gt;">
										<path id="&lt;Path&gt;" class="s18" d="m121.6 150.2c-3.7-12.9-9.5-16-15.5-7.3-4.2 6.1 1.3 13.5 4 18.8-2-4.6 0-17.8 5.6-10.9 4.8 5.8 6.7 16.8 8.5 16.7 0 0-0.8-11.1-2.6-17.3z"/>
									</g>
								</g>
							</g>
							<g id="&lt;Group&gt;" style="opacity: .6;mix-blend-mode: multiply">
								<path id="&lt;Path&gt;" class="s11" d="m191.3 283.6q-0.6-0.2-1.3-0.4c-4.9-1.2-9.6 3.5-13.9 6.2-1.2 0.7-2.3 1.3-3.4 1.6-18.1 4.9-28.7 27.5-28.7 27.5 0 0-25.4-49.7-36.3-64.8q1.3-0.4 2.5-0.9 0.7-0.2 1.3-0.4c4.1-1.5 8-3.2 12-4.7 4.9-1.8 9.8-3.4 14.8-4.2l12 9.1c11.2 13.7 27.7 31 37.7 28.5z"/>
							</g>
							<g id="&lt;Group&gt;">
								<g id="&lt;Group&gt;">
									<path id="&lt;Path&gt;" class="s20" d="m197.4 280.2l-14.1 2.7c-5.1 3.8-8.9 3.3-10.3 9.4 2.6 10.5 11.4 19.9 16 22.2 10.4-18 10-33.2 8.4-34.3z"/>
								</g>
								<g id="&lt;Group&gt;">
									<path id="&lt;Path&gt;" class="s20" d="m187 298.9l-13.3 217.1 20 9.6 10.6-12.7-12-214.5z"/>
								</g>
							</g>
							<g id="&lt;Group&gt;">
								<g id="&lt;Group&gt;" style="opacity: .6;mix-blend-mode: multiply">
									<path id="&lt;Path&gt;" class="s11" d="m230.6 311.8c-0.4-1-14.8-24-35.1-21.4q-2 0.3-4.2 0.8l9.8-48.4c10.3 1.8 5.5 0.8 16 4.9 7 12.5 13.4 63.7 13.5 64.1z"/>
								</g>
								<path id="&lt;Path&gt;" class="s4" d="m226.7 303.4c-0.4-1.2-15.7-20.8-50.6-14-1.7 0.4-3.4 0.5-5 0.9-17.1 4-28.2 19.2-28.2 19.2 0 0-19.5-34.8-31.4-54.6q-0.6-1.1-1.3-2.1-1.3-2.2-2.5-4.1c10.5-4.1 20.3-10 30.6-11.9 0 0 5 7.2 12 15.8 11.2 13.7 27.7 31 37.7 28.5q0.3-0.1 0.6-0.2c9.8-3.2 6.5-39.2 6.5-39.2 10.3 1.9 11.5 1.9 22 6 0 18.4 9.2 54.2 9.6 55.7z"/>
							</g>
						</g>
						<g id="&lt;Group&gt;">
							<g id="&lt;Group&gt;">
								<g id="&lt;Group&gt;">
									<g id="&lt;Group&gt;">
										<path id="&lt;Path&gt;" class="s4" d="m198.9 1001.8v9.8h26.1l-18-11.3z"/>
										<path id="&lt;Path&gt;" class="s21" d="m230.5 542l-1.7 18-20.3 442.3-9.6 2-11.4-316.8-2.7-90.7h-12.2l-8.4 75-37 333.2-8.4-3.1-0.1-405.8v-7.6l-0.2-32.5-0.1-1.2-0.7-14.7v-0.1z"/>
										<path id="&lt;Path&gt;" class="s4" d="m127.2 1005v6.6h-23.3l14.9-11.3z"/>
									</g>
									<path id="&lt;Path&gt;" class="s22" d="m230.4 542l-0.5 5.5-0.4 4.6-0.3 3.2c-15.8 4.9-84.2 3.5-110.7 0.7l-0.1-1.2-0.7-14.7z"/>
								</g>
								<path id="&lt;Path&gt;" class="s22" d="m197.1 593.6c-6.1 16.1-9 81-9.6 93.9l-2.7-90.7h-12.2l-8.4 75c0.1-14-0.1-68.1 1.1-79.2-5.1-1.4-12.1-6-14.8-11.9 7.9 1.9 38.3 12.2 46.6 12.9z"/>
							</g>
							<g id="&lt;Group&gt;">
								<g id="&lt;Group&gt;">
									<path id="&lt;Path&gt;" class="s11" d="m172.3 541l31.8-1-3.2 18.5h-32.4l28.6-2.7v-11.7z"/>
								</g>
								<path id="&lt;Path&gt;" class="s11" d="m180.1 547.5l20.3 1.8v1.7l-20.3 1.1z"/>
							</g>
							<g id="&lt;Group&gt;">
								<path id="&lt;Path&gt;" class="s23" d="m173.7 551.1c0 1.4-1.1 2.5-2.6 2.5-1.4 0-2.6-1.1-2.6-2.5 0-1.3 1.2-2.4 2.6-2.4 1.5 0 2.6 1.1 2.6 2.4z"/>
								<path id="&lt;Path&gt;" class="s23" d="m214.4 551c0 1.4-1.1 2.5-2.6 2.5-1.4 0-2.6-1.1-2.6-2.5 0-1.3 1.2-2.4 2.6-2.4 1.5 0 2.6 1.1 2.6 2.4z"/>
								<path id="&lt;Path&gt;" class="s23" d="m229.9 547.5l-0.4 4.6c-1-0.3-1.7-1.2-1.7-2.2 0-1.2 0.9-2.2 2.1-2.4z"/>
								<path id="&lt;Path&gt;" class="s23" d="m149.8 549.9c0 1.3-1.1 2.4-2.6 2.4-1.4 0-2.6-1.1-2.6-2.4 0-1.4 1.2-2.5 2.6-2.5 1.5 0 2.6 1.1 2.6 2.5z"/>
								<path id="&lt;Path&gt;" class="s23" d="m125.9 548.6c0 1.3-1.1 2.4-2.6 2.4-1.4 0-2.6-1.1-2.6-2.4 0-1.3 1.2-2.4 2.6-2.4 1.5 0 2.6 1.1 2.6 2.4z"/>
							</g>
						</g>
					</g>
					<g id="&lt;Group&gt;">
						<path id="&lt;Path&gt;" class="s11" d="m230.1 537.6q0 4.3 0 8.7c0.3-2.6 0.3-5.5 0-8.7z"/>
						<path id="&lt;Path&gt;" class="s11" d="m249.5 377.9q-1.7 5.4-4.1 11.1c-11.5 28.2-12.8 94.3-15.6 139.4-0.4-29.3-0.3-116 2.5-124.1-8.2-1.5-17.2 3.6-24.9 0.6 7.2-4.1 24.1-7.3 31.5-10.7 7.5-3.4 7.3-80 9.1-68.7 1.5 9.3 2.9 35.1 1.5 52.4z"/>
					</g>
					<g id="&lt;Group&gt;">
						<path id="&lt;Path&gt;" class="s4" d="m210.7 427.3c-2.6 3.2-5.4 6.2-8.1 9.1q-3 3.3-6 6.6c-2.7 2.9-5.3 5.8-8 8.8q-0.7 0.8-1.5 1.8-0.8 1-1.7 2c-1.4 1.6-2.9 3.3-4.5 4.8q-0.3 0.3-0.6 0.6c-14-13-39.1-29.4-53.1-47.1-38.9-49.1-64.4-93.7-56.8-131.3 0.4-2.1 0.9-4 2.2-5.3 43.1-41.9 65.4 32.1 100.8 93.7 10.1 17.4 23.8 35.5 33.2 49.8q2.3 3.4 4.1 6.5z"/>
						<path id="&lt;Path&gt;" class="s4" d="m307.4 491.9c-3.9 7.9-4 11.3-6.9 19.7-1.6-0.5-15.2-4.7-32.3-10.4-24.7-8.2-56.8-19.7-70.6-28-6.8-4.2-12.6-8.5-16.7-12.8q-0.6-0.6-1.1-1.2c-0.4-0.5 0.1-2.8 1.2-6.2 4.1-12.5 16-39.1 16-39.1 0.2 0.1 3.7 2.7 9.6 6.9 21.2 15.2 72.1 52 100.8 71.1z"/>
					</g>
				</g>
				<g id="&lt;Group&gt;">
					<path id="&lt;Path&gt;" class="s0" d="m322 487.5c8.2-0.4 20.1 0.2 28.3 0.3v9.3c-9 4.8-22.6 0.3-26.3-2.1-1.3 2.1-9.6 10.1-13.4 9.5-1.6-3.3 5.4-16.8 11.4-17z"/>
				</g>
				<g id="&lt;Group&gt;">
					<path id="&lt;Path&gt;" class="s0" d="m306.1 520.5c3.7 2.7 8.6 4.2 17.2 5.7 7.2 1.3 11.6 2 14.5 1.1 0.1-1.7 0.2-3.5-1-5.2-3.4-4.2-5.7-1.4-7.1 0.6 0.5-2.5-2.1-6.4-5.9-8.7-3.5 0.7-1.9 4.3-1.6 6.1-0.5-1-3.3-7.6-6.7-8.3-5.4-1.2-3.2 5.5-3.2 6.9-1-1.7-3.8-6-7.3-4-1.6 0.9 0 4 1.1 5.8z"/>
				</g>
			</g>
		</g>
	</g>
</svg>